<?xml version="1.0" encoding="UTF-8"?>
<svg id="Layer_2" data-name="Layer 2" xmlns="http://www.w3.org/2000/svg" viewBox="0 0 152.87 145.51">
  <defs>
    <style>
      .cls-1 {
        fill: #d0af72;
      }
    </style>
  </defs>
  <g id="Layer_2-2" data-name="Layer 2">
    <path class="cls-1" d="M75.99.72h0c-1.02-.98-2.63-.96-3.63.04L.76,72.35c-.49.49-.76,1.15-.76,1.83v58.81c0,1.43,1.16,2.59,2.59,2.59h6.68c1.43,0,2.59-1.16,2.59-2.59v-56.2c0-.69.27-1.35.76-1.83L72.64,14.95c1.01-1.01,2.66-1.01,3.67,0l10.16,10.16c1.01,1.01,1.01,2.66,0,3.67l-54.41,54.41c-.49.49-.76,1.15-.76,1.83v57.9c0,1.43,1.16,2.59,2.59,2.59h116.38c1.43,0,2.59-1.16,2.59-2.59v-64.68c0-.69-.28-1.35-.77-1.84L75.99.72ZM139.7,135.51H44.54c-1.43,0-2.59-1.16-2.59-2.59v-44.07c0-.69.27-1.35.76-1.83l51.09-51.09c1.01-1.01,2.66-1.01,3.67,0l44.07,44.07c.49.49.76,1.15.76,1.83v51.09c0,1.43-1.16,2.59-2.59,2.59Z"/>
  </g>
</svg>