<?xml version="1.0" encoding="UTF-8"?>
<svg id="Layer_2" data-name="Layer 2" xmlns="http://www.w3.org/2000/svg" viewBox="0 0 351.54 405.63">
  <defs>
    <style>
      .cls-1 {
        fill: #231f20;
      }

      .cls-2 {
        fill: #fff;
      }

      .cls-3 {
        fill: #ea3846;
      }
    </style>
  </defs>
  <g id="Layer_1-2" data-name="Layer 1">
    <g>
      <polygon class="cls-2" points="175.77 57.5 49.92 130.16 49.92 275.47 175.77 348.13 301.62 275.47 301.62 130.16 175.77 57.5"/>
      <path class="cls-3" d="M175.76,0L0,101.41v202.8l175.76,101.41,175.78-101.41V101.41L175.76,0ZM50.69,130.96l125.09-72.59,125.04,72.57v143.77l-125.04,72.57-125.09-72.59v-143.72Z"/>
      <g>
        <path class="cls-1" d="M84.14,167.01l3.7-21.02h89.24l-3.7,21.02h-89.24ZM99.3,268.31l21.53-122.32h22.91l-21.53,122.32h-22.91Z"/>
        <path class="cls-1" d="M173.21,268.31l21.54-122.32h22.74l-21.36,122.32h-22.91ZM193.88,268.31l2.93-21.71h4.22c10.11,0,18.75-1.99,25.93-5.99,7.18-3.99,12.68-9.73,16.5-17.23,3.82-7.49,5.73-16.5,5.73-27,0-9.59-3.14-17.06-9.43-22.4-6.29-5.34-15.09-8.01-26.4-8.01-5.8,0-11.51.57-17.14,1.72l-1.46-21.71c6.55-1.15,13.47-1.72,20.76-1.72,18.09,0,32.2,4.45,42.34,13.35,10.13,8.9,15.2,21.31,15.2,37.21s-3,28.57-9,39.54c-6,10.97-14.63,19.37-25.88,25.2-11.26,5.83-24.84,8.74-40.74,8.74h-3.53Z"/>
      </g>
    </g>
  </g>
</svg>